<svg width="800" height="420" xmlns="http://www.w3.org/2000/svg" style="font-family: system-ui, -apple-system, sans-serif;">
  <rect width="800" height="420" fill="#F8FAFC" rx="12"/>
  <text x="400" y="40" text-anchor="middle" font-size="20" font-weight="700" fill="#1E293B">权威机构 AI 搜索核心观点</text>
  
    <rect x="80" y="70" width="640" height="52" fill="white" rx="8" stroke="#4F46E5" stroke-width="2"/>
    <rect x="80" y="70" width="120" height="52" fill="#4F46E5" rx="8"/>
    <rect x="192" y="70" width="8" height="52" fill="#4F46E5"/>
    <text x="140" y="102" text-anchor="middle" font-size="14" font-weight="700" fill="white">BCG</text>
    <text x="215" y="102" font-size="14" fill="#1E293B">72% CEO 亲自主导 AI 战略</text>
  
    <rect x="80" y="135" width="640" height="52" fill="white" rx="8" stroke="#10B981" stroke-width="2"/>
    <rect x="80" y="135" width="120" height="52" fill="#10B981" rx="8"/>
    <rect x="192" y="135" width="8" height="52" fill="#10B981"/>
    <text x="140" y="167" text-anchor="middle" font-size="14" font-weight="700" fill="white">红杉资本</text>
    <text x="215" y="167" font-size="14" fill="#1E293B">AI 搜索是 2025 杀手级应用</text>
  
    <rect x="80" y="200" width="640" height="52" fill="white" rx="8" stroke="#06B6D4" stroke-width="2"/>
    <rect x="80" y="200" width="120" height="52" fill="#06B6D4" rx="8"/>
    <rect x="192" y="200" width="8" height="52" fill="#06B6D4"/>
    <text x="140" y="232" text-anchor="middle" font-size="14" font-weight="700" fill="white">Bain</text>
    <text x="215" y="232" font-size="14" fill="#1E293B">AI 市场 2027 年达 9,900 亿$</text>
  
    <rect x="80" y="265" width="640" height="52" fill="white" rx="8" stroke="#F59E0B" stroke-width="2"/>
    <rect x="80" y="265" width="120" height="52" fill="#F59E0B" rx="8"/>
    <rect x="192" y="265" width="8" height="52" fill="#F59E0B"/>
    <text x="140" y="297" text-anchor="middle" font-size="14" font-weight="700" fill="white">Gartner</text>
    <text x="215" y="297" font-size="14" fill="#1E293B">AI 重塑 80% B2B 销售交互</text>
  
    <rect x="80" y="330" width="640" height="52" fill="white" rx="8" stroke="#EF4444" stroke-width="2"/>
    <rect x="80" y="330" width="120" height="52" fill="#EF4444" rx="8"/>
    <rect x="192" y="330" width="8" height="52" fill="#EF4444"/>
    <text x="140" y="362" text-anchor="middle" font-size="14" font-weight="700" fill="white">McKinsey</text>
    <text x="215" y="362" font-size="14" fill="#1E293B">生成式 AI 年创造 2.6-4.4 万亿$</text>
  
</svg>