<svg xmlns="http://www.w3.org/2000/svg" viewBox="0 0 700 410">
<rect width="700" height="410" fill="#f8fafc" rx="8"/>
<text x="350" y="30" text-anchor="middle" font-size="16" font-weight="bold" fill="#0f172a">车载光学关键词机会矩阵（右上方 = 最高优先级）</text>
<text x="335" y="375" text-anchor="middle" font-size="12" fill="#64748b">搜索热度 →</text>
<text x="15" y="195" text-anchor="middle" font-size="12" fill="#64748b" transform="rotate(-90,15,195)">GEO 内容空白度 →</text>
<text x="70" y="360" text-anchor="middle" font-size="10" fill="#94a3b8">0</text>
<line x1="70" y1="50" x2="70" y2="340" stroke="#e2e8f0" stroke-dasharray="4"/>
<text x="60" y="344" text-anchor="end" font-size="10" fill="#94a3b8">0</text>
<line x1="70" y1="340" x2="600" y2="340" stroke="#e2e8f0" stroke-dasharray="4"/>
<text x="176" y="360" text-anchor="middle" font-size="10" fill="#94a3b8">20</text>
<line x1="176" y1="50" x2="176" y2="340" stroke="#e2e8f0" stroke-dasharray="4"/>
<text x="60" y="286" text-anchor="end" font-size="10" fill="#94a3b8">20</text>
<line x1="70" y1="282" x2="600" y2="282" stroke="#e2e8f0" stroke-dasharray="4"/>
<text x="282" y="360" text-anchor="middle" font-size="10" fill="#94a3b8">40</text>
<line x1="282" y1="50" x2="282" y2="340" stroke="#e2e8f0" stroke-dasharray="4"/>
<text x="60" y="228" text-anchor="end" font-size="10" fill="#94a3b8">40</text>
<line x1="70" y1="224" x2="600" y2="224" stroke="#e2e8f0" stroke-dasharray="4"/>
<text x="388" y="360" text-anchor="middle" font-size="10" fill="#94a3b8">60</text>
<line x1="388" y1="50" x2="388" y2="340" stroke="#e2e8f0" stroke-dasharray="4"/>
<text x="60" y="170" text-anchor="end" font-size="10" fill="#94a3b8">60</text>
<line x1="70" y1="166" x2="600" y2="166" stroke="#e2e8f0" stroke-dasharray="4"/>
<text x="494" y="360" text-anchor="middle" font-size="10" fill="#94a3b8">80</text>
<line x1="494" y1="50" x2="494" y2="340" stroke="#e2e8f0" stroke-dasharray="4"/>
<text x="60" y="112" text-anchor="end" font-size="10" fill="#94a3b8">80</text>
<line x1="70" y1="108" x2="600" y2="108" stroke="#e2e8f0" stroke-dasharray="4"/>
<text x="600" y="360" text-anchor="middle" font-size="10" fill="#94a3b8">100</text>
<line x1="600" y1="50" x2="600" y2="340" stroke="#e2e8f0" stroke-dasharray="4"/>
<text x="60" y="54" text-anchor="end" font-size="10" fill="#94a3b8">100</text>
<line x1="70" y1="50" x2="600" y2="50" stroke="#e2e8f0" stroke-dasharray="4"/>

<circle cx="520.5" cy="64.5" r="14" fill="#DC2626" opacity="0.8"/>
<text x="538.5" y="68.5" font-size="11" fill="#334155">车载镜头</text>
<circle cx="467.5" cy="79" r="14" fill="#DC2626" opacity="0.8"/>
<text x="485.5" y="83" font-size="11" fill="#334155">ADAS摄像头</text>
<circle cx="388" cy="73.19999999999999" r="14" fill="#DC2626" opacity="0.8"/>
<text x="406" y="77.19999999999999" font-size="11" fill="#334155">车载镜头供应商</text>
<circle cx="308.5" cy="84.80000000000001" r="14" fill="#DC2626" opacity="0.8"/>
<text x="326.5" y="88.80000000000001" font-size="11" fill="#334155">800万像素车载镜头</text>
<circle cx="335" cy="122.5" r="11" fill="#F59E0B" opacity="0.8"/>
<text x="350" y="126.5" font-size="11" fill="#334155">ADAS前视摄像头</text>
<circle cx="282" cy="137" r="11" fill="#F59E0B" opacity="0.8"/>
<text x="297" y="141" font-size="11" fill="#334155">DMS摄像头</text>
<circle cx="361.5" cy="151.5" r="11" fill="#F59E0B" opacity="0.8"/>
<text x="376.5" y="155.5" font-size="11" fill="#334155">车载镜头模组</text>
<circle cx="255.5" cy="166" r="11" fill="#F59E0B" opacity="0.8"/>
<text x="270.5" y="170" font-size="11" fill="#334155">车规级镜头</text>
<circle cx="229" cy="195" r="8" fill="#16A34A" opacity="0.8"/>
<text x="241" y="199" font-size="11" fill="#334155">舜宇车载镜头</text>
<circle cx="292.6" cy="209.5" r="8" fill="#16A34A" opacity="0.8"/>
<text x="304.6" y="213.5" font-size="11" fill="#334155">自动驾驶传感器融合</text>
<circle cx="620" cy="50" r="6" fill="#DC2626"/><text x="632" y="54" font-size="11" fill="#334155">P0 优先级</text>
<circle cx="620" cy="72" r="6" fill="#F59E0B"/><text x="632" y="76" font-size="11" fill="#334155">P1 优先级</text>
<circle cx="620" cy="94" r="6" fill="#16A34A"/><text x="632" y="98" font-size="11" fill="#334155">P2 优先级</text>
<text x="350" y="400" text-anchor="middle" font-size="10" fill="#94a3b8">Source: Web search analysis, multiple SEO tools</text>
</svg>