<svg xmlns="http://www.w3.org/2000/svg" viewBox="0 0 650 360">
<rect width="650" height="360" fill="#f8fafc" rx="8"/>
<text x="325" y="30" text-anchor="middle" font-size="16" font-weight="bold" fill="#0f172a">ADAS L2+ 渗透率趋势（%）</text>
<polyline points="60,213.8 200,197 340,176 480,155 620,138.2" fill="none" stroke="#2563EB" stroke-width="3"/>
<circle cx="60" cy="213.8" r="4" fill="#2563EB"/><text x="60" y="203.8" text-anchor="middle" font-size="11" fill="#2563EB">22%</text>
<circle cx="200" cy="197" r="4" fill="#2563EB"/><text x="200" y="187" text-anchor="middle" font-size="11" fill="#2563EB">30%</text>
<circle cx="340" cy="176" r="4" fill="#2563EB"/><text x="340" y="166" text-anchor="middle" font-size="11" fill="#2563EB">40%</text>
<circle cx="480" cy="155" r="4" fill="#2563EB"/><text x="480" y="145" text-anchor="middle" font-size="11" fill="#2563EB">50%</text>
<circle cx="620" cy="138.2" r="4" fill="#2563EB"/><text x="620" y="128.2" text-anchor="middle" font-size="11" fill="#2563EB">58%</text>
<polyline points="60,207.5 200,186.5 340,165.5 480,144.5 620,129.8" fill="none" stroke="#DC2626" stroke-width="3"/>
<circle cx="60" cy="207.5" r="4" fill="#DC2626"/><text x="60" y="197.5" text-anchor="middle" font-size="11" fill="#DC2626">25%</text>
<circle cx="200" cy="186.5" r="4" fill="#DC2626"/><text x="200" y="176.5" text-anchor="middle" font-size="11" fill="#DC2626">35%</text>
<circle cx="340" cy="165.5" r="4" fill="#DC2626"/><text x="340" y="155.5" text-anchor="middle" font-size="11" fill="#DC2626">45%</text>
<circle cx="480" cy="144.5" r="4" fill="#DC2626"/><text x="480" y="134.5" text-anchor="middle" font-size="11" fill="#DC2626">55%</text>
<circle cx="620" cy="129.8" r="4" fill="#DC2626"/><text x="620" y="119.80000000000001" text-anchor="middle" font-size="11" fill="#DC2626">62%</text>
<polyline points="60,176 200,144.5 340,113 480,77.30000000000001 620,66.79999999999998" fill="none" stroke="#16A34A" stroke-width="3"/>
<circle cx="60" cy="176" r="4" fill="#16A34A"/><text x="60" y="166" text-anchor="middle" font-size="11" fill="#16A34A">40%</text>
<circle cx="200" cy="144.5" r="4" fill="#16A34A"/><text x="200" y="134.5" text-anchor="middle" font-size="11" fill="#16A34A">55%</text>
<circle cx="340" cy="113" r="4" fill="#16A34A"/><text x="340" y="103" text-anchor="middle" font-size="11" fill="#16A34A">70%</text>
<circle cx="480" cy="77.30000000000001" r="4" fill="#16A34A"/><text x="480" y="67.30000000000001" text-anchor="middle" font-size="11" fill="#16A34A">87%</text>
<circle cx="620" cy="66.79999999999998" r="4" fill="#16A34A"/><text x="620" y="56.79999999999998" text-anchor="middle" font-size="11" fill="#16A34A">92%</text>
<text x="60" y="280" text-anchor="middle" font-size="12" fill="#64748b">2022</text>
<text x="200" y="280" text-anchor="middle" font-size="12" fill="#64748b">2023</text>
<text x="340" y="280" text-anchor="middle" font-size="12" fill="#64748b">2024</text>
<text x="480" y="280" text-anchor="middle" font-size="12" fill="#64748b">2025E</text>
<text x="620" y="280" text-anchor="middle" font-size="12" fill="#64748b">2026E</text>
<rect x="60" y="330" width="12" height="12" fill="#2563EB"/><text x="76" y="340" font-size="11" fill="#334155">全球 L2+</text>
<rect x="260" y="330" width="12" height="12" fill="#DC2626"/><text x="276" y="340" font-size="11" fill="#334155">中国 L2+</text>
<rect x="460" y="330" width="12" height="12" fill="#16A34A"/><text x="476" y="340" font-size="11" fill="#334155">中国新能源 L2+</text>
<text x="325" y="358" text-anchor="middle" font-size="10" fill="#94a3b8">Source: Yano Research, Counterpoint, China EV Home</text>
</svg>