<svg xmlns="http://www.w3.org/2000/svg" viewBox="0 0 700 440" font-family="Arial, sans-serif">
    <rect width="700" height="440" rx="12" fill="#fafafa"/>
    <text x="350" y="30" text-anchor="middle" font-size="18" font-weight="bold" fill="#2c3e50">车载镜头品牌 AI 搜索可见度评分</text>
    <text x="350" y="48" text-anchor="middle" font-size="11" fill="#999">AI搜索实测评分（品牌提及率×内容丰富度×技术权威性）| 2026.04</text>
    <text x="150" y="70" text-anchor="end" fill="#333" font-size="13">舜宇车载/舜宇光学</text><rect x="160" y="50" width="360" height="32" rx="4" fill="#e74c3c"/><text x="528" y="70" fill="#333" font-size="12" font-weight="bold">72分</text><text x="150" y="112" text-anchor="end" fill="#333" font-size="13">博世 Bosch</text><rect x="160" y="92" width="325" height="32" rx="4" fill="#2c3e50"/><text x="493" y="112" fill="#333" font-size="12" font-weight="bold">65分</text><text x="150" y="154" text-anchor="end" fill="#333" font-size="13">欧菲光 O-Film</text><rect x="160" y="134" width="225" height="32" rx="4" fill="#f39c12"/><text x="393" y="154" fill="#333" font-size="12" font-weight="bold">45分</text><text x="150" y="196" text-anchor="end" fill="#333" font-size="13">联创电子</text><rect x="160" y="176" width="190" height="32" rx="4" fill="#9b59b6"/><text x="358" y="196" fill="#333" font-size="12" font-weight="bold">38分</text><text x="150" y="238" text-anchor="end" fill="#333" font-size="13">法雷奥 Valeo</text><rect x="160" y="218" width="210" height="32" rx="4" fill="#3498db"/><text x="378" y="238" fill="#333" font-size="12" font-weight="bold">42分</text><text x="150" y="280" text-anchor="end" fill="#333" font-size="13">电装 Denso</text><rect x="160" y="260" width="275" height="32" rx="4" fill="#1abc9c"/><text x="443" y="280" fill="#333" font-size="12" font-weight="bold">55分</text><text x="150" y="322" text-anchor="end" fill="#333" font-size="13">舜宇智领(模组)</text><rect x="160" y="302" width="140" height="32" rx="4" fill="#e67e22"/><text x="308" y="322" fill="#333" font-size="12" font-weight="bold">28分</text><text x="150" y="364" text-anchor="end" fill="#333" font-size="13">旷达股份</text><rect x="160" y="344" width="75" height="32" rx="4" fill="#95a5a6"/><text x="243" y="364" fill="#333" font-size="12" font-weight="bold">15分</text>
    <text x="350" y="420" text-anchor="middle" font-size="11" fill="#e74c3c">⚠️ 舜宇车载在"车载镜头哪家好"等采购关键词中AI推荐度远低于市占率应有的水平</text>
  </svg>