<svg xmlns="http://www.w3.org/2000/svg" viewBox="0 0 560 440" font-family="Arial, sans-serif">
    <rect width="560" height="440" rx="12" fill="#fafafa"/>
    <text x="280" y="30" text-anchor="middle" font-size="18" font-weight="bold" fill="#2c3e50">全球车载镜头市场份额格局</text>
    <text x="280" y="48" text-anchor="middle" font-size="11" fill="#999">2024年 | Source: Sunny Optical年报, BusinessResearchInsights</text>
    <path d="M260,80A140,140 0 0 1 385.52974514993304,281.98615234544616L336.21448812674504,257.6344496383066A85,85 0 0 0 260,135Z" fill="#e74c3c"/><path d="M385.52974514993304,281.98615234544616A140,140 0 0 1 309.0748048267763,351.1169841447469L289.795417216257,299.6067403735963A85,85 0 0 0 336.21448812674504,257.6344496383066Z" fill="#3498db"/><path d="M309.0748048267763,351.1169841447469A140,140 0 0 1 239.83849044268473,358.5406566043712L247.7590834830586,304.1139700812253A85,85 0 0 0 289.795417216257,299.6067403735963Z" fill="#2ecc71"/><path d="M239.83849044268473,358.5406566043712A140,140 0 0 1 182.76957811201981,336.770980705844L213.11010099658347,290.89666685711956A85,85 0 0 0 247.7590834830586,304.1139700812253Z" fill="#f39c12"/><path d="M182.76957811201981,336.770980705844A140,140 0 0 1 145.2067046944367,300.1404975832428L190.30407070733656,268.65673067554025A85,85 0 0 0 213.11010099658347,290.89666685711956Z" fill="#9b59b6"/><path d="M145.2067046944367,300.1404975832428A140,140 0 0 1 260,80L260,135A85,85 0 0 0 190.30407070733656,268.65673067554025Z" fill="#bdc3c7"/>
    <text x="260" y="215" text-anchor="middle" font-size="20" font-weight="bold" fill="#e74c3c">32.3%</text>
    <text x="260" y="235" text-anchor="middle" font-size="11" fill="#e74c3c">舜宇车载</text>
    <text x="260" y="250" text-anchor="middle" font-size="10" fill="#999">连续12年全球第一</text>
    <text x="404.38786804476376" y="130.2662629693387" text-anchor="start" fill="#555" font-size="12"><tspan font-weight="bold">舜宇车载</tspan> 32.3%</text><text x="374.01654801124243" y="346.09610136558564" text-anchor="start" fill="#555" font-size="12"><tspan font-weight="bold">Sekonix</tspan> 12%</text><text x="278.1238962267942" y="389.0311343674898" text-anchor="start" fill="#555" font-size="12"><tspan font-weight="bold">Nidec Sankyo</tspan> 8%</text><text x="199.4099806187474" y="378.83592021762405" text-anchor="end" fill="#555" font-size="12"><tspan font-weight="bold">欧菲光</tspan> 7%</text><text x="141.31187877110966" y="341.70920211371134" text-anchor="end" fill="#555" font-size="12"><tspan font-weight="bold">联创电子</tspan> 6%</text><text x="109.26299653090538" y="141.39748232303145" text-anchor="end" fill="#555" font-size="12"><tspan font-weight="bold">其他</tspan> 34.7%</text>
  </svg>