<svg xmlns="http://www.w3.org/2000/svg" viewBox="0 0 660 430" font-family="Arial, sans-serif">
    <rect width="660" height="430" rx="12" fill="#fafafa"/>
    <text x="330" y="30" text-anchor="middle" font-size="18" font-weight="bold" fill="#2c3e50">不同自动驾驶等级单车摄像头搭载量</text>
    <text x="330" y="48" text-anchor="middle" font-size="11" fill="#999">Source: Yole, GMI Insights, 佐思汽研</text>
    <text x="110" y="72" text-anchor="end" fill="#333" font-size="13">L0 基础</text><rect x="120" y="50" width="44.44444444444444" height="36" rx="6" fill="#bdc3c7"/><text x="174.44444444444446" y="72" fill="#333" font-size="14" font-weight="bold">2颗</text><circle cx="130" cy="68" r="3" fill="rgba(255,255,255,0.5)"/><circle cx="152.22222222222223" cy="68" r="3" fill="rgba(255,255,255,0.5)"/><text x="110" y="120" text-anchor="end" fill="#333" font-size="13">L1 辅助</text><rect x="120" y="98" width="88.88888888888889" height="36" rx="6" fill="#95a5a6"/><text x="218.88888888888889" y="120" fill="#333" font-size="14" font-weight="bold">4颗</text><circle cx="130" cy="116" r="3" fill="rgba(255,255,255,0.5)"/><circle cx="152.22222222222223" cy="116" r="3" fill="rgba(255,255,255,0.5)"/><circle cx="174.44444444444446" cy="116" r="3" fill="rgba(255,255,255,0.5)"/><circle cx="196.66666666666666" cy="116" r="3" fill="rgba(255,255,255,0.5)"/><text x="110" y="168" text-anchor="end" fill="#333" font-size="13">L2 部分</text><rect x="120" y="146" width="133.33333333333331" height="36" rx="6" fill="#3498db"/><text x="263.3333333333333" y="168" fill="#333" font-size="14" font-weight="bold">6颗</text><circle cx="130" cy="164" r="3" fill="rgba(255,255,255,0.5)"/><circle cx="152.22222222222223" cy="164" r="3" fill="rgba(255,255,255,0.5)"/><circle cx="174.44444444444443" cy="164" r="3" fill="rgba(255,255,255,0.5)"/><circle cx="196.66666666666666" cy="164" r="3" fill="rgba(255,255,255,0.5)"/><circle cx="218.88888888888886" cy="164" r="3" fill="rgba(255,255,255,0.5)"/><circle cx="241.1111111111111" cy="164" r="3" fill="rgba(255,255,255,0.5)"/><text x="110" y="216" text-anchor="end" fill="#333" font-size="13">L2+ 高阶</text><rect x="120" y="194" width="177.77777777777777" height="36" rx="6" fill="#2980b9"/><text x="307.77777777777777" y="216" fill="#333" font-size="14" font-weight="bold">8颗</text><circle cx="130" cy="212" r="3" fill="rgba(255,255,255,0.5)"/><circle cx="152.22222222222223" cy="212" r="3" fill="rgba(255,255,255,0.5)"/><circle cx="174.44444444444446" cy="212" r="3" fill="rgba(255,255,255,0.5)"/><circle cx="196.66666666666666" cy="212" r="3" fill="rgba(255,255,255,0.5)"/><circle cx="218.88888888888889" cy="212" r="3" fill="rgba(255,255,255,0.5)"/><circle cx="241.11111111111111" cy="212" r="3" fill="rgba(255,255,255,0.5)"/><circle cx="263.3333333333333" cy="212" r="3" fill="rgba(255,255,255,0.5)"/><circle cx="285.55555555555554" cy="212" r="3" fill="rgba(255,255,255,0.5)"/><text x="110" y="264" text-anchor="end" fill="#333" font-size="13">L3 有条件</text><rect x="120" y="242" width="244.44444444444446" height="36" rx="6" fill="#e74c3c"/><text x="374.44444444444446" y="264" fill="#333" font-size="14" font-weight="bold">11颗</text><circle cx="130" cy="260" r="3" fill="rgba(255,255,255,0.5)"/><circle cx="152.22222222222223" cy="260" r="3" fill="rgba(255,255,255,0.5)"/><circle cx="174.44444444444446" cy="260" r="3" fill="rgba(255,255,255,0.5)"/><circle cx="196.66666666666669" cy="260" r="3" fill="rgba(255,255,255,0.5)"/><circle cx="218.8888888888889" cy="260" r="3" fill="rgba(255,255,255,0.5)"/><circle cx="241.11111111111114" cy="260" r="3" fill="rgba(255,255,255,0.5)"/><circle cx="263.33333333333337" cy="260" r="3" fill="rgba(255,255,255,0.5)"/><circle cx="285.55555555555554" cy="260" r="3" fill="rgba(255,255,255,0.5)"/><circle cx="307.7777777777778" cy="260" r="3" fill="rgba(255,255,255,0.5)"/><circle cx="330" cy="260" r="3" fill="rgba(255,255,255,0.5)"/><circle cx="352.2222222222223" cy="260" r="3" fill="rgba(255,255,255,0.5)"/><text x="110" y="312" text-anchor="end" fill="#333" font-size="13">L4 高度</text><rect x="120" y="290" width="333.33333333333337" height="36" rx="6" fill="#c0392b"/><text x="463.33333333333337" y="312" fill="#333" font-size="14" font-weight="bold">15颗</text><circle cx="130" cy="308" r="3" fill="rgba(255,255,255,0.5)"/><circle cx="152.22222222222223" cy="308" r="3" fill="rgba(255,255,255,0.5)"/><circle cx="174.44444444444446" cy="308" r="3" fill="rgba(255,255,255,0.5)"/><circle cx="196.66666666666669" cy="308" r="3" fill="rgba(255,255,255,0.5)"/><circle cx="218.8888888888889" cy="308" r="3" fill="rgba(255,255,255,0.5)"/><circle cx="241.11111111111114" cy="308" r="3" fill="rgba(255,255,255,0.5)"/><circle cx="263.33333333333337" cy="308" r="3" fill="rgba(255,255,255,0.5)"/><circle cx="285.55555555555554" cy="308" r="3" fill="rgba(255,255,255,0.5)"/><circle cx="307.7777777777778" cy="308" r="3" fill="rgba(255,255,255,0.5)"/><circle cx="330" cy="308" r="3" fill="rgba(255,255,255,0.5)"/><circle cx="352.2222222222223" cy="308" r="3" fill="rgba(255,255,255,0.5)"/><circle cx="374.44444444444446" cy="308" r="3" fill="rgba(255,255,255,0.5)"/><circle cx="396.6666666666667" cy="308" r="3" fill="rgba(255,255,255,0.5)"/><circle cx="418.8888888888889" cy="308" r="3" fill="rgba(255,255,255,0.5)"/><circle cx="441.11111111111114" cy="308" r="3" fill="rgba(255,255,255,0.5)"/>
    <text x="330" y="405" text-anchor="middle" font-size="11" fill="#aaa">ADAS升级直接驱动车载镜头需求倍增：L2→L3 摄像头数量增长83%</text>
  </svg>