<svg xmlns="http://www.w3.org/2000/svg" viewBox="0 0 800 420">
  <rect width="800" height="420" fill="white"/>
  <text x="400" y="35" text-anchor="middle" font-size="18" font-weight="bold" fill="#1F2937">AI应用各赛道用户规模（2025年8月）</text>
  <text x="400" y="405" text-anchor="middle" font-size="11" fill="#9CA3AF">数据来源：QuestMobile《2025年AI应用层发展核心报告》</text>
  <text x="140" y="75" text-anchor="end" font-size="13" fill="#374151">AI搜索引擎</text>
    <rect x="155" y="60" width="500" height="28" rx="4" fill="#6366F1" opacity="1"/>
    <text x="665" y="79" font-size="12" font-weight="bold" fill="#374151">6.7亿</text>
  <text x="140" y="120" text-anchor="end" font-size="13" fill="#374151">AI综合助手</text>
    <rect x="155" y="105" width="484.375" height="28" rx="4" fill="#6366F1" opacity="0.9428571428571428"/>
    <text x="649.375" y="124" font-size="12" font-weight="bold" fill="#374151">6.5亿</text>
  <text x="140" y="165" text-anchor="end" font-size="13" fill="#374151">创作设计</text>
    <rect x="155" y="150" width="87.05357142857143" height="28" rx="4" fill="#6366F1" opacity="0.8857142857142857"/>
    <text x="252.05357142857144" y="169" font-size="12" font-weight="bold" fill="#374151">1.2亿</text>
  <text x="140" y="210" text-anchor="end" font-size="13" fill="#374151">效率办公</text>
    <rect x="155" y="195" width="68.45238095238096" height="28" rx="4" fill="#6366F1" opacity="0.8285714285714285"/>
    <text x="233.45238095238096" y="214" font-size="12" font-weight="bold" fill="#374151">0.92亿</text>
  <text x="140" y="255" text-anchor="end" font-size="13" fill="#374151">文案写作</text>
    <rect x="155" y="240" width="64.73214285714286" height="28" rx="4" fill="#6366F1" opacity="0.7714285714285715"/>
    <text x="229.73214285714286" y="259" font-size="12" font-weight="bold" fill="#374151">0.87亿</text>
  <text x="140" y="300" text-anchor="end" font-size="13" fill="#374151">开发平台</text>
    <rect x="155" y="285" width="60.267857142857146" height="28" rx="4" fill="#6366F1" opacity="0.7142857142857143"/>
    <text x="225.26785714285714" y="304" font-size="12" font-weight="bold" fill="#374151">0.81亿</text>
  <text x="140" y="345" text-anchor="end" font-size="13" fill="#374151">AI信息检索</text>
    <rect x="155" y="330" width="54.70982142857143" height="28" rx="4" fill="#6366F1" opacity="0.6571428571428571"/>
    <text x="219.70982142857144" y="349" font-size="12" font-weight="bold" fill="#374151">0.74亿</text>
</svg>